<?xml version="1.0" standalone="no"?>
<!DOCTYPE svg PUBLIC "-//W3C//DTD SVG 20010904//EN"
 "http://www.w3.org/TR/2001/REC-SVG-20010904/DTD/svg10.dtd">
<svg version="1.0" xmlns="http://www.w3.org/2000/svg"
 width="260.000000pt" height="260.000000pt" viewBox="0 0 260.000000 260.000000"
 preserveAspectRatio="xMidYMid meet">
<metadata>
Created by potrace 1.11, written by Peter Selinger 2001-2013
</metadata>
<g transform="translate(0.000000,260.000000) scale(0.100000,-0.100000)"
fill="#000000" stroke="none">
<path d="M1280 2398 c-1 -23 -1 -447 -1 -940 0 -494 -3 -898 -7 -899 -4 0 -23
-2 -42 -4 -19 -3 -82 -9 -140 -15 -58 -6 -121 -13 -141 -16 l-36 -5 119 333
c66 183 133 369 148 413 16 44 38 106 50 138 l21 59 -92 256 c-50 142 -111
311 -134 377 -24 66 -58 162 -77 214 -18 52 -38 96 -44 98 -6 2 -32 -56 -58
-129 -26 -73 -51 -142 -56 -153 -9 -21 -86 -238 -140 -393 -18 -51 -35 -90
-38 -88 -2 3 -5 164 -6 358 l-1 353 -30 0 -30 0 -3 -937 c-2 -884 -3 -938 -20
-939 -9 -1 -28 -2 -42 -4 -14 -1 -58 -6 -99 -9 -105 -10 -132 -14 -138 -20 -6
-6 23 -49 83 -124 15 -19 23 -37 18 -41 -5 -5 -48 -20 -96 -35 -127 -39 -186
-65 -168 -76 8 -5 28 -7 44 -5 17 2 67 6 111 10 44 3 100 8 125 10 25 2 81 6
125 10 44 3 100 7 125 10 25 2 74 6 110 9 144 12 227 18 260 21 19 2 78 7 130
10 52 4 97 7 100 8 3 0 21 -6 40 -15 130 -56 258 -78 445 -73 145 3 169 5 245
25 19 5 49 11 65 14 132 23 403 103 498 147 51 23 30 31 -65 24 -51 -4 -104
-8 -118 -10 -14 -2 -70 -6 -125 -10 -55 -3 -116 -8 -135 -10 -106 -12 -204
-15 -190 -6 8 5 121 77 250 159 129 82 236 155 238 161 4 12 -33 11 -158 -4
-19 -2 -64 -7 -100 -10 -36 -3 -72 -8 -80 -10 -8 -2 -51 -6 -95 -10 -44 -3
-93 -8 -110 -11 -16 -2 -55 -6 -85 -8 -30 -3 -98 -10 -150 -16 -52 -6 -122
-13 -155 -16 -33 -2 -65 -6 -70 -8 -8 -3 -13 157 -6 196 0 4 115 7 254 7 138
0 260 0 270 0 9 1 17 8 17 16 0 9 -72 217 -161 463 -231 640 -362 1004 -396
1102 -35 96 -53 113 -53 48z m-184 -698 l85 -234 -137 -386 c-75 -212 -138
-387 -140 -389 -2 -2 -6 2 -8 10 -3 8 -23 64 -45 124 -113 311 -222 622 -223
635 -1 12 164 485 255 729 l20 54 54 -154 c30 -85 93 -260 139 -389z m346 153
c49 -137 95 -266 103 -288 7 -22 50 -141 95 -265 45 -124 85 -236 90 -250 4
-14 24 -68 43 -121 l35 -95 -231 0 -232 1 0 637 c0 350 2 635 4 632 2 -2 44
-115 93 -251z m-689 -948 c75 -209 134 -381 132 -384 -4 -4 -16 -5 -120 -15
-33 -4 -81 -9 -107 -12 -47 -7 -48 -6 -49 22 -4 205 -2 781 2 776 4 -4 68
-178 142 -387z m1366 -329 c-2 -2 -71 -46 -154 -98 -82 -52 -170 -108 -195
-124 -25 -16 -56 -29 -70 -31 -14 -1 -45 -4 -70 -7 -61 -8 -218 -24 -311 -32
-59 -5 -82 -3 -106 10 -104 53 -329 82 -493 62 -75 -9 -65 -8 -190 -35 -52
-12 -97 -21 -100 -21 -3 0 -23 22 -43 50 l-37 50 27 1 c16 0 42 2 58 3 17 2
64 7 105 10 41 4 86 9 100 11 14 2 59 6 100 10 41 3 82 8 90 10 8 2 49 7 90
10 41 3 86 7 100 9 14 3 57 7 95 11 39 3 106 10 150 15 104 12 209 23 345 35
41 4 83 9 94 11 10 2 51 6 90 10 39 3 82 7 95 9 13 3 58 7 100 11 42 3 77 7
78 8 1 1 14 3 29 4 15 1 26 0 23 -2z"/>
</g>
</svg>
